<svg version="1.2" xmlns="http://www.w3.org/2000/svg" viewBox="0 0 448 512" width="512" height="512">
	<title>book-svg</title>
	<style>
		.s0 { fill: #ffffff } 
	</style>
	<path id="Layer" fill-rule="evenodd" class="s0" d="m448 360c0 8-4 15-9 19-5 15-5 59 0 75 5 4 9 11 9 18v16c0 14-11 24-24 24h-328c-53 0-96-43-96-96v-320c0-53 43-96 96-96h328c13 0 24 11 24 24zm-320-226v20q0 6 6 6h212c3 0 6-2 6-6v-20c0-3-3-6-6-6h-212c-4 0-6 3-6 6zm0 64v20q0 6 6 6h212c3 0 6-2 6-6v-20c0-3-3-6-6-6h-212c-4 0-6 3-6 6zm253 250c-2-17-2-46 0-64h-285c-18 0-32 15-32 32 0 18 14 32 32 32z"/>
</svg>